<?xml version="1.0" encoding="utf-8"?>
<!-- Generator: Adobe Illustrator 19.0.0, SVG Export Plug-In . SVG Version: 6.00 Build 0)  -->
<svg version="1.1" id="Layer_1" xmlns="http://www.w3.org/2000/svg" xmlns:xlink="http://www.w3.org/1999/xlink" x="0px" y="0px" width="24"
height="24"
	 viewBox="0 0 64 64" style="enable-background:new 0 0 64 64;" xml:space="preserve">
<g id="XMLID_1_">
	<path id="XMLID_40_" d="M60.4,51.6l-1.7-5.3c-0.2-0.7-0.7-1.3-1.4-1.7c0,0,0,0,0,0c0.6-2,0.7-3.8,0.8-5c0.1-1.5-0.1-2.5-0.1-2.7
		c-0.1-0.6-0.9-6.3-2.2-9.4l-0.1-0.2c-1.4-3.2-3.2-3.9-4.5-3.9c-1.1,0-2.1,0.4-2.7,1c-0.3-0.2-0.6-0.4-0.9-0.5
		c-1.1-0.4-2.2-0.5-3.2-0.1c-0.5,0.2-0.7,0.5-1,0.8c-0.2-0.1-0.4-0.2-0.4-0.3V6.9C43,4.6,40.6,3,38.3,3H21.4c-1.1,0-2.3,0.3-3.1,1.1
		C17.6,4.9,17,5.8,17,6.9v12c0,0.4-1.2,1-1.8,2.1l-3.3,8.4l0,0.1c-0.7,1.8-1.1,4.4-1.3,7.6c-0.1,0.7-0.1,1.4-0.1,2
		C10,39,9.6,38.9,9.1,39c-0.8,0.1-1.4,0.6-1.8,1.2l-3.1,4.6c-0.4,0.6-0.6,1.4-0.4,2.2c0.1,0.8,0.6,1.4,1.2,1.8l14.9,10
		c0.5,0.3,1,0.5,1.6,0.5c1,0,1.9-0.5,2.4-1.3l3.1-4.6c0.4-0.6,0.6-1.4,0.4-2.1c0.7-0.2,1.3-0.4,1.9-0.8c1.1-0.6,2.1-1.5,3.1-2.6
		c0.6-0.7,1.1-1.4,1.5-2l3.4,4.1c-0.5,0.3-0.8,0.7-1.1,1.2c-0.4,0.7-0.4,1.5-0.2,2.2l1.7,5.3c0.2,0.7,0.7,1.3,1.4,1.7
		c0.4,0.2,0.9,0.3,1.3,0.3c0.3,0,0.6,0,0.9-0.1l17.2-5.4c0.7-0.2,1.3-0.7,1.7-1.4C60.6,53.1,60.7,52.3,60.4,51.6z M40.3,57.9
		l-1.7-5.3c0-0.1,0-0.1,0-0.2c0-0.1,0.1-0.1,0.2-0.1l16.6-5.3l0.7-0.2c0,0,0.1,0,0.1,0c0.1,0,0.1,0.1,0.1,0.2l1.7,5.3
		c0,0.1,0,0.1,0,0.2l0,0c0,0.1-0.1,0.1-0.2,0.1l-17.2,5.4c0,0-0.1,0-0.2,0C40.3,58.1,40.3,58,40.3,57.9z M37.8,29.8l1.3,2.3l2.3-1.3
		L40,28.4c-0.2-0.3,0.2-1,0.8-1.4c0.9-0.6,1.5,0.1,1.8,0.4l1.2,2.4l2.4-1.2L45,26.4c0-0.1,0.2-0.2,0.4-0.3c0.6-0.2,1.7,0,2.7,1.3
		l0.9,1.3l2.2-1.4l-0.5-0.8c-0.1-0.1-0.2-0.3-0.3-0.4c0.2-0.2,0.5-0.3,0.8-0.3c0.7,0,1.5,0.9,2.2,2.5c1.1,2.7,1.9,7.8,2,8.7l0,0.1
		c0,0,0.4,3.2-0.8,7.4l-14.7,4.6L27.2,33.6c-0.5-0.7,0-1.5,0.4-1.9c0.2-0.2,0.8-0.7,1.4-0.2l5.5,5.4l1.8,3.8l2.4-1.1L28,17.6
		c-0.8-1.6,0.1-2.2,0.3-2.4c0.4-0.2,1.3-0.3,1.8,0.6l7.5,13.7 M23.2,41h7l0.2,1H23C23.1,42,23.1,42,23.2,41z M40,24.5
		c0,0.1-0.4,0.1-0.5,0.2c-0.4,0.2-0.7,0.5-1,0.8l-6.1-11.1c-0.6-1-1.4-1.7-2.5-1.9c-1-0.3-2-0.1-2.8,0.3c-0.9,0.5-1.6,1.3-1.9,2.3
		c-0.3,1.1-0.2,2.3,0.4,3.5l5.5,11.3l-0.3-0.3c-1.6-1.5-3.7-1-4.9,0.1c-1.5,1.3-2.2,3.7-0.7,5.6L28,39h-4c0.1-1-0.2-2.5-0.9-3.5
		c-0.7-1.1-1.7-1.7-1.8-1.7c-0.8-0.5-0.7-2.3-0.4-3.3l1.7-6.4c0.3-0.8,0.3-1.6,0.2-2.4c-0.2-0.7-0.4-1.4-0.9-2
		c-0.5-0.6-0.9-1-1.9-1.2V8h20V24.5z M18.8,21.1c0.4-0.1,0.7,0.1,1.1,0.4c0.4,0.4,0.5,1,0.3,1.6l-1.8,6.6c0,0.2-1.2,4.3,1.5,6.1
		L20,36c0,0,0.6,0.3,1,0.9c0.6,0.8,0.6,1.7,0.1,2.8c-0.3,0.6-0.8,1.4-1.4,2.2c0,0,0,0,0,0c-0.1,0.2-0.3,0.3-0.4,0.5l-1.1,1.1
		l1.5,0.5l0.3,0.1c0,0,0.1,0,0.1,0l0.1,0c0.1,0,0.1-0.1,0.2-0.1c0.3,0.1,0.7,0,1.1,0h10.5c-0.4,1-0.8,1.4-1.4,2.1
		c-1.6,1.8-3.3,2.9-5,2.9c0,0,0,0,0,0L13,40.6c0-1.9,0.3-7.2,1.4-10.3l3.3-8.2C18,21.6,18.4,21.2,18.8,21.1z M21.4,5h16.9
		c0.3,0,0.5,0,0.8,1H20.7C20.9,5,21.2,5,21.4,5z M24.8,52l-3.1,4.6c0,0.1-0.1,0.1-0.2,0.1c0,0-0.1,0-0.2,0l-15-10
		c-0.1,0-0.1-0.1-0.1-0.2c0-0.1,0-0.1,0-0.2l3.1-4.6c0-0.1,0.1-0.1,0.2-0.1c0,0,0.1,0,0.1,0l14.9,10C24.9,51.8,24.9,51.9,24.8,52z"
		/>
	<path id="XMLID_49_" d="M42.1,56.5c0.2,0,0.4,0,0.6-0.1c0.5-0.2,1-0.5,1.2-1c0.3-0.5,0.3-1.3,0.1-1.8c-0.4-1.1-1.8-1.7-2.6-1.5l0,0
		c-1,0.3-1.2,0.9-1.3,1.1C40,53.8,39.9,54.4,40,55C40.3,55.8,41.1,56.5,42.1,56.5z M42.1,53.9c0.2,0,0.4,0.1,0.5,0.3
		c0,0.1,0,0.3,0,0.4s-0.2,0.2-0.3,0.2c-0.1,0-0.3,0-0.4,0c-0.1-0.1-0.2-0.2-0.2-0.3c0-0.1,0-0.3,0-0.4c0.1-0.1,0.2-0.2,0.3-0.2
		C42,53.9,42,53.9,42.1,53.9z"/>
	<path id="XMLID_52_" d="M19.8,54.5c0.4,0.2,0.8,0.4,1.2,0.4c0.1,0,0.3,0,0.4,0c0.6-0.1,1-0.4,1.4-0.9c0.3-0.5,0.4-1,0.3-1.6
		c-0.1-0.6-0.4-1-0.9-1.4c-0.5-0.3-1-0.4-1.6-0.3c-0.6,0.1-1,0.4-1.4,0.9c-0.3,0.5-0.4,1-0.3,1.6C19,53.7,19.3,54.2,19.8,54.5z
		 M21,52.3c0.1,0,0.2,0,0.3,0.1c0.1,0.1,0.2,0.2,0.2,0.3c0,0.1,0,0.3-0.1,0.4c-0.1,0.1-0.2,0.2-0.3,0.2c-0.1,0-0.3,0-0.4-0.1
		c-0.1-0.1-0.2-0.2-0.2-0.3c0-0.1,0-0.3,0.1-0.4c0.1-0.1,0.2-0.2,0.3-0.2C20.9,52.3,21,52.3,21,52.3z"/>
</g>
</svg>
